<?xml version="1.0" standalone="no"?>
<!DOCTYPE svg PUBLIC "-//W3C//DTD SVG 20010904//EN"
 "http://www.w3.org/TR/2001/REC-SVG-20010904/DTD/svg10.dtd">
<svg version="1.0" xmlns="http://www.w3.org/2000/svg"
 width="512.000000pt" height="512.000000pt" viewBox="0 0 512.000000 512.000000"
 preserveAspectRatio="xMidYMid meet">

<g transform="translate(0.000000,512.000000) scale(0.100000,-0.100000)"
fill="#000000" stroke="none">
<path d="M1330 4685 c-668 -239 -1234 -442 -1258 -451 -68 -25 -93 -106 -45
-146 8 -7 304 -117 657 -243 l641 -230 2 -314 c1 -214 5 -322 13 -336 39 -73
282 -150 595 -189 468 -59 1077 -45 1469 35 209 42 368 111 382 163 3 13 6
162 7 332 l2 309 220 78 c212 76 221 80 267 128 l48 50 -2 312 -3 311 -875
313 c-481 172 -882 312 -890 312 -8 0 -562 -195 -1230 -434z"/>
<path d="M4500 4151 c0 -155 2 -281 5 -281 19 0 573 205 587 217 26 23 32 67
14 101 -18 34 -8 30 -353 153 -123 44 -230 82 -238 85 -13 5 -15 -29 -15 -275z"/>
<path d="M2136 2122 c43 -154 65 -307 71 -493 l6 -176 -32 -65 c-48 -97 -68
-211 -53 -310 6 -44 23 -105 36 -134 l25 -54 -135 -325 c-73 -178 -134 -337
-134 -353 0 -33 30 -69 64 -78 15 -3 55 7 111 31 48 20 91 32 95 28 3 -4 22
-43 40 -86 25 -58 41 -82 62 -93 34 -18 79 -11 101 14 8 9 69 147 135 307 106
255 122 287 130 265 96 -244 236 -559 257 -577 57 -50 103 -22 157 94 24 53
43 83 51 80 146 -60 169 -67 192 -61 31 8 65 49 65 78 0 11 -61 167 -135 345
l-136 325 20 50 c33 84 41 127 41 217 0 135 -43 250 -126 339 l-44 47 0 77 c0
148 -35 386 -78 531 l-18 59 -396 3 -396 2 24 -87z"/>
</g>
</svg>
